<mxfile host="app.diagrams.net" agent="Mozilla/5.0 (Windows NT 10.0; Win64; x64) AppleWebKit/537.36 (KHTML, like Gecko) Chrome/133.0.0.0 Safari/537.36" version="26.0.16">
  <diagram id="C5RBs43oDa-KdzZeNtuy" name="Page-1">
    <mxGraphModel dx="1750" dy="870" grid="1" gridSize="10" guides="1" tooltips="1" connect="1" arrows="1" fold="1" page="1" pageScale="1" pageWidth="1169" pageHeight="827" math="0" shadow="0">
      <root>
        <mxCell id="WIyWlLk6GJQsqaUBKTNV-0" />
        <mxCell id="WIyWlLk6GJQsqaUBKTNV-1" parent="WIyWlLk6GJQsqaUBKTNV-0" />
        <mxCell id="-I7-290ibAs5o9FoI0uK-3" value="" style="edgeStyle=orthogonalEdgeStyle;rounded=0;orthogonalLoop=1;jettySize=auto;html=1;" edge="1" parent="WIyWlLk6GJQsqaUBKTNV-1" source="WIyWlLk6GJQsqaUBKTNV-3" target="-I7-290ibAs5o9FoI0uK-2">
          <mxGeometry relative="1" as="geometry" />
        </mxCell>
        <mxCell id="WIyWlLk6GJQsqaUBKTNV-3" value="Start Button Is Hit" style="rounded=1;whiteSpace=wrap;html=1;fontSize=12;glass=0;strokeWidth=1;shadow=0;" parent="WIyWlLk6GJQsqaUBKTNV-1" vertex="1">
          <mxGeometry x="160" y="40" width="120" height="40" as="geometry" />
        </mxCell>
        <mxCell id="-I7-290ibAs5o9FoI0uK-5" value="" style="edgeStyle=orthogonalEdgeStyle;rounded=0;orthogonalLoop=1;jettySize=auto;html=1;" edge="1" parent="WIyWlLk6GJQsqaUBKTNV-1" source="-I7-290ibAs5o9FoI0uK-2" target="-I7-290ibAs5o9FoI0uK-4">
          <mxGeometry relative="1" as="geometry" />
        </mxCell>
        <mxCell id="-I7-290ibAs5o9FoI0uK-2" value="Update the Screen to&lt;div&gt;&quot;Ready Set&quot;&lt;/div&gt;" style="whiteSpace=wrap;html=1;rounded=1;glass=0;strokeWidth=1;shadow=0;" vertex="1" parent="WIyWlLk6GJQsqaUBKTNV-1">
          <mxGeometry x="160" y="150" width="120" height="60" as="geometry" />
        </mxCell>
        <mxCell id="-I7-290ibAs5o9FoI0uK-6" value="No" style="edgeStyle=orthogonalEdgeStyle;rounded=0;orthogonalLoop=1;jettySize=auto;html=1;entryX=1;entryY=0.5;entryDx=0;entryDy=0;exitX=1;exitY=0.5;exitDx=0;exitDy=0;" edge="1" parent="WIyWlLk6GJQsqaUBKTNV-1" source="-I7-290ibAs5o9FoI0uK-4" target="-I7-290ibAs5o9FoI0uK-2">
          <mxGeometry relative="1" as="geometry" />
        </mxCell>
        <mxCell id="-I7-290ibAs5o9FoI0uK-8" value="" style="edgeStyle=orthogonalEdgeStyle;rounded=0;orthogonalLoop=1;jettySize=auto;html=1;" edge="1" parent="WIyWlLk6GJQsqaUBKTNV-1" source="-I7-290ibAs5o9FoI0uK-4" target="-I7-290ibAs5o9FoI0uK-7">
          <mxGeometry relative="1" as="geometry" />
        </mxCell>
        <mxCell id="-I7-290ibAs5o9FoI0uK-4" value="Is the Starting&lt;div&gt;Line triggered?&lt;/div&gt;" style="rhombus;whiteSpace=wrap;html=1;rounded=1;glass=0;strokeWidth=1;shadow=0;" vertex="1" parent="WIyWlLk6GJQsqaUBKTNV-1">
          <mxGeometry x="160" y="250" width="120" height="120" as="geometry" />
        </mxCell>
        <mxCell id="-I7-290ibAs5o9FoI0uK-14" value="" style="edgeStyle=orthogonalEdgeStyle;rounded=0;orthogonalLoop=1;jettySize=auto;html=1;" edge="1" parent="WIyWlLk6GJQsqaUBKTNV-1" source="-I7-290ibAs5o9FoI0uK-7" target="-I7-290ibAs5o9FoI0uK-13">
          <mxGeometry relative="1" as="geometry" />
        </mxCell>
        <mxCell id="-I7-290ibAs5o9FoI0uK-7" value="Update screen to&amp;nbsp;&lt;div&gt;&quot;Go!&quot;&lt;/div&gt;&lt;div&gt;Begin timing&lt;/div&gt;" style="whiteSpace=wrap;html=1;rounded=1;glass=0;strokeWidth=1;shadow=0;" vertex="1" parent="WIyWlLk6GJQsqaUBKTNV-1">
          <mxGeometry x="160" y="450" width="120" height="60" as="geometry" />
        </mxCell>
        <mxCell id="-I7-290ibAs5o9FoI0uK-16" value="" style="edgeStyle=orthogonalEdgeStyle;rounded=0;orthogonalLoop=1;jettySize=auto;html=1;" edge="1" parent="WIyWlLk6GJQsqaUBKTNV-1" source="-I7-290ibAs5o9FoI0uK-13" target="-I7-290ibAs5o9FoI0uK-15">
          <mxGeometry relative="1" as="geometry" />
        </mxCell>
        <mxCell id="-I7-290ibAs5o9FoI0uK-13" value="Continuously evaluate all lanes for finish signal" style="shape=hexagon;perimeter=hexagonPerimeter2;whiteSpace=wrap;html=1;fixedSize=1;rounded=1;glass=0;strokeWidth=1;shadow=0;" vertex="1" parent="WIyWlLk6GJQsqaUBKTNV-1">
          <mxGeometry x="160" y="580" width="120" height="80" as="geometry" />
        </mxCell>
        <mxCell id="-I7-290ibAs5o9FoI0uK-18" value="No" style="edgeStyle=orthogonalEdgeStyle;rounded=0;orthogonalLoop=1;jettySize=auto;html=1;entryX=0.5;entryY=1;entryDx=0;entryDy=0;" edge="1" parent="WIyWlLk6GJQsqaUBKTNV-1" source="-I7-290ibAs5o9FoI0uK-15" target="-I7-290ibAs5o9FoI0uK-13">
          <mxGeometry relative="1" as="geometry">
            <Array as="points">
              <mxPoint x="395" y="705" />
              <mxPoint x="220" y="705" />
            </Array>
          </mxGeometry>
        </mxCell>
        <mxCell id="-I7-290ibAs5o9FoI0uK-20" value="" style="edgeStyle=orthogonalEdgeStyle;rounded=0;orthogonalLoop=1;jettySize=auto;html=1;" edge="1" parent="WIyWlLk6GJQsqaUBKTNV-1" source="-I7-290ibAs5o9FoI0uK-15" target="-I7-290ibAs5o9FoI0uK-19">
          <mxGeometry relative="1" as="geometry" />
        </mxCell>
        <mxCell id="-I7-290ibAs5o9FoI0uK-15" value="Was a new lane finish signal detected?" style="rhombus;whiteSpace=wrap;html=1;rounded=1;glass=0;strokeWidth=1;shadow=0;" vertex="1" parent="WIyWlLk6GJQsqaUBKTNV-1">
          <mxGeometry x="320" y="555" width="150" height="130" as="geometry" />
        </mxCell>
        <mxCell id="-I7-290ibAs5o9FoI0uK-23" value="" style="edgeStyle=orthogonalEdgeStyle;rounded=0;orthogonalLoop=1;jettySize=auto;html=1;" edge="1" parent="WIyWlLk6GJQsqaUBKTNV-1" source="-I7-290ibAs5o9FoI0uK-19" target="-I7-290ibAs5o9FoI0uK-22">
          <mxGeometry relative="1" as="geometry" />
        </mxCell>
        <mxCell id="-I7-290ibAs5o9FoI0uK-19" value="Record the time for the finished lane, skip lane on subsequent scans" style="whiteSpace=wrap;html=1;rounded=1;glass=0;strokeWidth=1;shadow=0;" vertex="1" parent="WIyWlLk6GJQsqaUBKTNV-1">
          <mxGeometry x="510" y="590" width="120" height="60" as="geometry" />
        </mxCell>
        <mxCell id="-I7-290ibAs5o9FoI0uK-25" value="Yes" style="edgeStyle=orthogonalEdgeStyle;rounded=0;orthogonalLoop=1;jettySize=auto;html=1;" edge="1" parent="WIyWlLk6GJQsqaUBKTNV-1" source="-I7-290ibAs5o9FoI0uK-22" target="-I7-290ibAs5o9FoI0uK-24">
          <mxGeometry relative="1" as="geometry" />
        </mxCell>
        <mxCell id="-I7-290ibAs5o9FoI0uK-27" value="No" style="edgeStyle=orthogonalEdgeStyle;rounded=0;orthogonalLoop=1;jettySize=auto;html=1;" edge="1" parent="WIyWlLk6GJQsqaUBKTNV-1" source="-I7-290ibAs5o9FoI0uK-22" target="-I7-290ibAs5o9FoI0uK-26">
          <mxGeometry relative="1" as="geometry" />
        </mxCell>
        <mxCell id="-I7-290ibAs5o9FoI0uK-22" value="Are all lanes finished?" style="rhombus;whiteSpace=wrap;html=1;rounded=1;glass=0;strokeWidth=1;shadow=0;" vertex="1" parent="WIyWlLk6GJQsqaUBKTNV-1">
          <mxGeometry x="520" y="450" width="100" height="100" as="geometry" />
        </mxCell>
        <mxCell id="-I7-290ibAs5o9FoI0uK-35" style="edgeStyle=orthogonalEdgeStyle;rounded=0;orthogonalLoop=1;jettySize=auto;html=1;exitX=0.5;exitY=0;exitDx=0;exitDy=0;entryX=0.5;entryY=1;entryDx=0;entryDy=0;" edge="1" parent="WIyWlLk6GJQsqaUBKTNV-1" source="-I7-290ibAs5o9FoI0uK-24" target="-I7-290ibAs5o9FoI0uK-34">
          <mxGeometry relative="1" as="geometry" />
        </mxCell>
        <mxCell id="-I7-290ibAs5o9FoI0uK-24" value="Update Screen to &quot;Finish&quot; and display times" style="whiteSpace=wrap;html=1;rounded=1;glass=0;strokeWidth=1;shadow=0;" vertex="1" parent="WIyWlLk6GJQsqaUBKTNV-1">
          <mxGeometry x="510" y="310" width="120" height="60" as="geometry" />
        </mxCell>
        <mxCell id="-I7-290ibAs5o9FoI0uK-29" value="Yes" style="edgeStyle=orthogonalEdgeStyle;rounded=0;orthogonalLoop=1;jettySize=auto;html=1;" edge="1" parent="WIyWlLk6GJQsqaUBKTNV-1" source="-I7-290ibAs5o9FoI0uK-26" target="-I7-290ibAs5o9FoI0uK-28">
          <mxGeometry relative="1" as="geometry" />
        </mxCell>
        <mxCell id="-I7-290ibAs5o9FoI0uK-33" value="No" style="edgeStyle=orthogonalEdgeStyle;rounded=0;orthogonalLoop=1;jettySize=auto;html=1;exitX=0.5;exitY=1;exitDx=0;exitDy=0;" edge="1" parent="WIyWlLk6GJQsqaUBKTNV-1" source="-I7-290ibAs5o9FoI0uK-26">
          <mxGeometry relative="1" as="geometry">
            <mxPoint x="735" y="750" as="targetPoint" />
          </mxGeometry>
        </mxCell>
        <mxCell id="-I7-290ibAs5o9FoI0uK-26" value="Is the race time &amp;gt;10 Seconds?" style="rhombus;whiteSpace=wrap;html=1;rounded=1;glass=0;strokeWidth=1;shadow=0;" vertex="1" parent="WIyWlLk6GJQsqaUBKTNV-1">
          <mxGeometry x="670" y="560" width="130" height="120" as="geometry" />
        </mxCell>
        <mxCell id="-I7-290ibAs5o9FoI0uK-30" style="edgeStyle=orthogonalEdgeStyle;rounded=0;orthogonalLoop=1;jettySize=auto;html=1;exitX=0.5;exitY=1;exitDx=0;exitDy=0;entryX=0.5;entryY=1;entryDx=0;entryDy=0;" edge="1" parent="WIyWlLk6GJQsqaUBKTNV-1" source="-I7-290ibAs5o9FoI0uK-28" target="-I7-290ibAs5o9FoI0uK-13">
          <mxGeometry relative="1" as="geometry">
            <mxPoint x="230" y="840" as="targetPoint" />
            <Array as="points">
              <mxPoint x="940" y="650" />
              <mxPoint x="940" y="750" />
              <mxPoint x="220" y="750" />
            </Array>
          </mxGeometry>
        </mxCell>
        <mxCell id="-I7-290ibAs5o9FoI0uK-28" value="Mark all remaining lanes as 10 sec and finished" style="whiteSpace=wrap;html=1;rounded=1;glass=0;strokeWidth=1;shadow=0;" vertex="1" parent="WIyWlLk6GJQsqaUBKTNV-1">
          <mxGeometry x="885" y="590" width="120" height="60" as="geometry" />
        </mxCell>
        <mxCell id="-I7-290ibAs5o9FoI0uK-37" value="" style="edgeStyle=orthogonalEdgeStyle;rounded=0;orthogonalLoop=1;jettySize=auto;html=1;" edge="1" parent="WIyWlLk6GJQsqaUBKTNV-1" source="-I7-290ibAs5o9FoI0uK-34" target="-I7-290ibAs5o9FoI0uK-36">
          <mxGeometry relative="1" as="geometry" />
        </mxCell>
        <mxCell id="-I7-290ibAs5o9FoI0uK-34" value="Start Button Is Hit" style="rounded=1;whiteSpace=wrap;html=1;fontSize=12;glass=0;strokeWidth=1;shadow=0;" vertex="1" parent="WIyWlLk6GJQsqaUBKTNV-1">
          <mxGeometry x="510" y="210" width="120" height="40" as="geometry" />
        </mxCell>
        <mxCell id="-I7-290ibAs5o9FoI0uK-38" style="edgeStyle=orthogonalEdgeStyle;rounded=0;orthogonalLoop=1;jettySize=auto;html=1;exitX=0.5;exitY=0;exitDx=0;exitDy=0;entryX=1;entryY=0.5;entryDx=0;entryDy=0;" edge="1" parent="WIyWlLk6GJQsqaUBKTNV-1" source="-I7-290ibAs5o9FoI0uK-36" target="WIyWlLk6GJQsqaUBKTNV-3">
          <mxGeometry relative="1" as="geometry" />
        </mxCell>
        <mxCell id="-I7-290ibAs5o9FoI0uK-36" value="Screen is reset to &quot;Race Ready&quot;" style="whiteSpace=wrap;html=1;rounded=1;glass=0;strokeWidth=1;shadow=0;" vertex="1" parent="WIyWlLk6GJQsqaUBKTNV-1">
          <mxGeometry x="510" y="80" width="120" height="60" as="geometry" />
        </mxCell>
      </root>
    </mxGraphModel>
  </diagram>
</mxfile>
